<svg xmlns="http://www.w3.org/2000/svg" xmlns:xlink="http://www.w3.org/1999/xlink" width="460" zoomAndPan="magnify" viewBox="0 0 345 149.999998" height="200" preserveAspectRatio="xMidYMid meet" version="1.0"><defs><g/><clipPath id="id1"><path d="M 15 27.574219 L 109.5 27.574219 L 109.5 122.074219 L 15 122.074219 Z M 15 27.574219 " clip-rule="nonzero"/></clipPath><clipPath id="id2"><path d="M 27 40 L 98.152344 40 L 98.152344 110.679688 L 27 110.679688 Z M 27 40 " clip-rule="nonzero"/></clipPath></defs><g clip-path="url(#id1)"><path fill="#e41c24" d="M 109.5 111.574219 C 109.5 117.371094 104.796875 122.074219 99 122.074219 L 25.5 122.074219 C 19.703125 122.074219 15 117.371094 15 111.574219 L 15 38.074219 C 15 32.277344 19.703125 27.574219 25.5 27.574219 L 99 27.574219 C 104.796875 27.574219 109.5 32.277344 109.5 38.074219 Z M 109.5 111.574219 " fill-opacity="1" fill-rule="nonzero"/></g><path fill="#e10032" d="M 20.074219 73.394531 C 20.074219 60.289062 28.894531 50.207031 41.746094 50.207031 C 54.410156 50.207031 63.421875 60.601562 63.421875 73.394531 C 63.421875 86.4375 54.664062 96.582031 41.746094 96.582031 C 28.957031 96.582031 20.074219 86.4375 20.074219 73.394531 Z M 53.59375 73.394531 C 53.59375 65.769531 49.625 58.902344 41.746094 58.902344 C 33.871094 58.902344 29.902344 65.769531 29.902344 73.394531 C 29.902344 81.082031 33.746094 87.886719 41.746094 87.886719 C 49.746094 87.886719 53.59375 81.082031 53.59375 73.394531 Z M 67.320312 55.246094 C 67.320312 52.664062 69.214844 50.585938 72.050781 50.585938 C 74.753906 50.585938 76.773438 52.347656 76.773438 55.246094 L 76.773438 68.859375 L 92.273438 52.347656 C 92.96875 51.59375 94.164062 50.585938 95.925781 50.585938 C 98.320312 50.585938 100.589844 52.410156 100.589844 55.121094 C 100.589844 56.757812 99.582031 58.082031 97.503906 60.160156 L 85.59375 71.878906 L 100.148438 87.066406 C 101.660156 88.578125 102.796875 89.960938 102.796875 91.851562 C 102.796875 94.8125 100.460938 96.195312 97.878906 96.195312 C 96.054688 96.195312 94.859375 95.128906 93.089844 93.234375 L 76.773438 75.59375 L 76.773438 91.660156 C 76.773438 94.117188 74.882812 96.195312 72.050781 96.195312 C 69.339844 96.195312 67.320312 94.433594 67.320312 91.660156 Z M 67.320312 55.246094 " fill-opacity="1" fill-rule="nonzero"/><path fill="#f8b62d" d="M 94.902344 75.570312 C 94.902344 93.152344 80.628906 107.410156 63.019531 107.410156 C 45.410156 107.410156 31.136719 93.152344 31.136719 75.570312 C 31.136719 57.984375 45.410156 43.726562 63.019531 43.726562 C 80.628906 43.726562 94.902344 57.984375 94.902344 75.570312 " fill-opacity="1" fill-rule="nonzero"/><g clip-path="url(#id2)"><path fill="#d59c27" d="M 63.019531 106.460938 C 45.933594 106.460938 32.085938 92.628906 32.085938 75.570312 C 32.085938 58.507812 45.933594 44.675781 63.019531 44.675781 C 80.101562 44.675781 93.953125 58.507812 93.953125 75.570312 C 93.953125 92.628906 80.101562 106.460938 63.019531 106.460938 Z M 63.019531 40.472656 C 43.609375 40.472656 27.878906 56.1875 27.878906 75.570312 C 27.878906 94.949219 43.609375 110.664062 63.019531 110.664062 C 82.425781 110.664062 98.160156 94.949219 98.160156 75.570312 C 98.160156 56.1875 82.425781 40.472656 63.019531 40.472656 " fill-opacity="1" fill-rule="nonzero"/></g><path fill="#b21d26" d="M 59.761719 47.933594 C 50.859375 50.679688 44.878906 49.683594 41.902344 55.628906 C 38.925781 61.574219 33.671875 70.226562 34.546875 75.691406 C 35.421875 81.160156 35.285156 89.726562 39.207031 93.925781 C 43.128906 98.121094 48.730469 101.207031 54.160156 103.25 C 59.589844 105.292969 71.144531 100.507812 75.171875 101.152344 C 79.199219 101.792969 86.203125 97.382812 87.953125 90.144531 C 89.707031 82.90625 95.484375 82.542969 91.105469 74.332031 C 86.730469 66.121094 91.050781 58.949219 84.25 55.800781 C 77.449219 52.65625 68.273438 45.308594 59.761719 47.933594 " fill-opacity="1" fill-rule="nonzero"/><path fill="#eeee82" d="M 60.296875 47.578125 C 52.070312 50.335938 46.550781 49.332031 43.800781 55.304688 C 41.050781 61.277344 36.199219 69.972656 37.007812 75.460938 C 37.816406 80.953125 37.6875 89.5625 41.308594 93.777344 C 44.933594 97.992188 50.109375 101.09375 55.121094 103.144531 C 60.132812 105.195312 70.808594 100.390625 74.527344 101.035156 C 78.246094 101.679688 84.714844 97.25 86.332031 89.980469 C 87.949219 82.710938 93.285156 82.34375 89.242188 74.09375 C 85.199219 65.847656 89.191406 58.644531 82.910156 55.480469 C 76.628906 52.320312 68.15625 44.941406 60.296875 47.578125 " fill-opacity="1" fill-rule="nonzero"/><path fill="#dbdb78" d="M 47.441406 58.753906 C 47.441406 58.753906 52.1875 53.921875 57.007812 53.820312 L 56.542969 51.617188 C 56.542969 51.617188 46.773438 55.101562 46.46875 57.859375 L 47.441406 58.753906 " fill-opacity="1" fill-rule="nonzero"/><path fill="#dbdb78" d="M 76.054688 90.3125 C 76.054688 90.3125 71.824219 95.601562 67.039062 96.191406 L 67.726562 98.339844 C 67.726562 98.339844 77.089844 93.878906 77.109375 91.101562 L 76.054688 90.3125 " fill-opacity="1" fill-rule="nonzero"/><path fill="#dbdb78" d="M 79.15625 62.023438 C 79.15625 62.023438 80.710938 67.265625 79.917969 70.34375 L 81.085938 71.082031 C 81.085938 71.082031 81.074219 63.308594 79.769531 61.832031 L 79.15625 62.023438 " fill-opacity="1" fill-rule="nonzero"/><path fill="#dbdb78" d="M 50.988281 93.511719 C 50.988281 93.511719 47.011719 89.753906 46.15625 86.691406 L 44.773438 86.640625 C 44.773438 86.640625 48.683594 93.359375 50.554688 93.984375 L 50.988281 93.511719 " fill-opacity="1" fill-rule="nonzero"/><path fill="#dbdb78" d="M 65.863281 55.019531 C 65.863281 55.019531 70.578125 55.457031 72.785156 57.378906 L 73.761719 56.511719 C 73.761719 56.511719 67.527344 53.628906 65.910156 54.355469 L 65.863281 55.019531 " fill-opacity="1" fill-rule="nonzero"/><path fill="#dbdb78" d="M 50.9375 73.148438 C 50.9375 73.148438 52.007812 68.542969 54.210938 66.617188 L 53.484375 65.53125 C 53.484375 65.53125 49.78125 71.3125 50.285156 73.011719 L 50.9375 73.148438 " fill-opacity="1" fill-rule="nonzero"/><path fill="#dbdb78" d="M 71.480469 72.996094 C 71.480469 72.996094 73.992188 77.003906 73.804688 79.921875 L 75.085938 80.171875 C 75.085938 80.171875 73.597656 73.472656 72.039062 72.628906 L 71.480469 72.996094 " fill-opacity="1" fill-rule="nonzero"/><path fill="#d0ad58" d="M 43.078125 87.152344 C 43.078125 87.152344 41.03125 92.816406 48.464844 97.308594 L 49.753906 94.375 C 49.753906 94.375 41.597656 92.039062 43.078125 87.152344 " fill-opacity="1" fill-rule="nonzero"/><path fill="#d0ad58" d="M 77.726562 64.359375 C 77.726562 64.359375 82.445312 68.972656 81.007812 72.597656 L 84.496094 71.257812 C 84.496094 71.257812 81.828125 64.582031 77.726562 64.359375 " fill-opacity="1" fill-rule="nonzero"/><path fill="#05984c" d="M 64.90625 67.964844 C 64.90625 67.964844 71.511719 67.925781 73.046875 71.507812 L 74.578125 68.109375 C 74.578125 68.109375 67.980469 65.238281 64.90625 67.964844 " fill-opacity="1" fill-rule="nonzero"/><path fill="#05984c" d="M 45.65625 63.757812 C 45.65625 63.757812 47.507812 59.535156 50.238281 59.582031 L 48.5 57.625 C 48.5 57.625 44.789062 61.015625 45.65625 63.757812 " fill-opacity="1" fill-rule="nonzero"/><path fill="#05984c" d="M 56.582031 87.792969 C 56.582031 87.792969 52.746094 85.222656 53.277344 82.550781 L 51.042969 83.910156 C 51.042969 83.910156 53.726562 88.160156 56.582031 87.792969 " fill-opacity="1" fill-rule="nonzero"/><path fill="#d0ad58" d="M 58.394531 61.398438 C 58.394531 61.398438 53.398438 60.398438 52.054688 65.125 C 50.710938 69.851562 54.082031 65.988281 54.082031 65.988281 C 54.082031 65.988281 55.453125 60.824219 58.394531 61.398438 " fill-opacity="1" fill-rule="nonzero"/><path fill="#d0ad58" d="M 80.1875 85.183594 C 80.1875 85.183594 80.1875 89.351562 74.445312 90.96875 C 74.445312 90.96875 78.339844 94.679688 80.1875 90.96875 C 82.035156 87.257812 80.1875 85.183594 80.1875 85.183594 " fill-opacity="1" fill-rule="nonzero"/><path fill="#634035" d="M 57.898438 54.035156 C 58.710938 53.601562 59.441406 54.339844 60.476562 54.261719 C 61.445312 54.1875 62.152344 54.671875 62.832031 55.519531 C 63.589844 56.457031 63.804688 57.101562 62.820312 58.59375 C 62.4375 59.179688 62.015625 60.089844 61.351562 60.449219 C 60.253906 61.035156 58.535156 61.328125 57.929688 60.347656 C 57.550781 59.734375 56.777344 59.640625 56.414062 58.964844 C 55.839844 57.898438 56.734375 56.808594 56.753906 55.683594 C 56.769531 54.914062 57.195312 54.414062 57.898438 54.035156 " fill-opacity="1" fill-rule="nonzero"/><path fill="#a15f4f" d="M 60.261719 56.21875 C 60.261719 56.21875 60.441406 55.632812 59.757812 55.28125 C 59.078125 54.933594 58.324219 55.640625 58.324219 55.640625 C 58.324219 55.640625 59.722656 55.0625 60.261719 56.21875 " fill-opacity="1" fill-rule="nonzero"/><path fill="#a15f4f" d="M 61.804688 58.027344 C 61.804688 58.027344 62.804688 57.636719 62.457031 56.582031 C 62.113281 55.527344 61.351562 55.855469 61.351562 55.855469 C 61.351562 55.855469 62.765625 56.671875 61.804688 58.027344 " fill-opacity="1" fill-rule="nonzero"/><path fill="#a15f4f" d="M 58.324219 59.273438 C 58.324219 59.273438 59.800781 59.878906 59.984375 58.8125 C 59.984375 58.8125 59.996094 59.441406 59.628906 59.640625 C 59.265625 59.84375 58.257812 59.234375 58.257812 59.234375 L 58.324219 59.273438 " fill-opacity="1" fill-rule="nonzero"/><path fill="#a15f4f" d="M 56.546875 59.164062 C 56.941406 59.667969 57.589844 59.800781 57.929688 60.347656 C 58.535156 61.328125 60.253906 61.035156 61.351562 60.449219 C 62.015625 60.089844 62.4375 59.179688 62.820312 58.59375 C 63.300781 57.867188 63.496094 57.34375 63.480469 56.886719 C 63.433594 56.960938 62.625 58.269531 62.246094 58.839844 C 61.851562 59.433594 60.878906 60.148438 59.667969 60.5 C 58.679688 60.789062 57.097656 59.609375 56.546875 59.164062 " fill-opacity="1" fill-rule="nonzero"/><path fill="#482420" d="M 56.753906 55.683594 C 56.746094 56.238281 56.523438 56.78125 56.371094 57.320312 C 56.371094 57.320312 56.644531 56.976562 56.964844 56.421875 C 57.28125 55.871094 57.058594 55.183594 57.367188 54.808594 C 57.671875 54.433594 58.421875 54.050781 58.792969 54.148438 C 59.164062 54.246094 60.292969 54.296875 60.800781 54.449219 C 61.304688 54.601562 62.550781 55.292969 62.867188 55.648438 C 62.902344 55.6875 62.941406 55.707031 62.984375 55.710938 C 62.9375 55.648438 62.886719 55.585938 62.832031 55.519531 C 62.152344 54.671875 61.445312 54.1875 60.472656 54.261719 C 59.441406 54.339844 58.710938 53.601562 57.898438 54.035156 C 57.195312 54.414062 56.769531 54.914062 56.753906 55.683594 " fill-opacity="1" fill-rule="nonzero"/><path fill="#634035" d="M 58.929688 78.074219 C 58.984375 77.152344 60 76.921875 60.476562 76.003906 C 60.921875 75.140625 61.707031 74.792969 62.789062 74.660156 C 63.984375 74.511719 64.648438 74.667969 65.402344 76.289062 C 65.699219 76.925781 66.25 77.757812 66.207031 78.511719 C 66.132812 79.75 65.476562 81.367188 64.320312 81.363281 C 63.601562 81.363281 63.117188 81.972656 62.347656 81.925781 C 61.140625 81.851562 60.679688 80.519531 59.734375 79.910156 C 59.085938 79.492188 58.882812 78.871094 58.929688 78.074219 " fill-opacity="1" fill-rule="nonzero"/><path fill="#a15f4f" d="M 62.035156 77.210938 C 62.035156 77.210938 61.625 76.753906 60.96875 77.148438 C 60.316406 77.542969 60.519531 78.554688 60.519531 78.554688 C 60.519531 78.554688 60.765625 77.066406 62.035156 77.210938 " fill-opacity="1" fill-rule="nonzero"/><path fill="#a15f4f" d="M 64.386719 76.851562 C 64.386719 76.851562 64.574219 75.796875 63.496094 75.535156 C 62.417969 75.277344 62.296875 76.097656 62.296875 76.097656 C 62.296875 76.097656 63.734375 75.324219 64.386719 76.851562 " fill-opacity="1" fill-rule="nonzero"/><path fill="#a15f4f" d="M 63.617188 80.464844 C 63.617188 80.464844 64.910156 79.527344 64.09375 78.8125 C 64.09375 78.8125 64.636719 79.132812 64.617188 79.550781 C 64.597656 79.964844 63.546875 80.503906 63.546875 80.503906 L 63.617188 80.464844 " fill-opacity="1" fill-rule="nonzero"/><path fill="#a15f4f" d="M 62.589844 81.917969 C 63.222656 81.847656 63.679688 81.363281 64.320312 81.363281 C 65.476562 81.367188 66.132812 79.75 66.207031 78.511719 C 66.25 77.757812 65.699219 76.925781 65.402344 76.289062 C 65.035156 75.5 64.6875 75.058594 64.292969 74.828125 C 64.332031 74.910156 65.019531 76.285156 65.308594 76.90625 C 65.605469 77.550781 65.703125 78.753906 65.367188 79.96875 C 65.09375 80.957031 63.257812 81.683594 62.589844 81.917969 " fill-opacity="1" fill-rule="nonzero"/><path fill="#482420" d="M 59.734375 79.910156 C 60.199219 80.210938 60.546875 80.683594 60.925781 81.097656 C 60.925781 81.097656 60.777344 80.683594 60.472656 80.125 C 60.167969 79.5625 59.46875 79.390625 59.308594 78.929688 C 59.148438 78.472656 59.21875 77.636719 59.496094 77.371094 C 59.773438 77.109375 60.410156 76.175781 60.808594 75.824219 C 61.203125 75.476562 62.445312 74.78125 62.914062 74.699219 C 62.96875 74.691406 63.007812 74.667969 63.035156 74.632812 C 62.953125 74.640625 62.871094 74.648438 62.789062 74.660156 C 61.707031 74.792969 60.921875 75.140625 60.476562 76.003906 C 60 76.921875 58.984375 77.152344 58.929688 78.074219 C 58.882812 78.871094 59.085938 79.492188 59.734375 79.910156 " fill-opacity="1" fill-rule="nonzero"/><path fill="#634035" d="M 60.996094 94.246094 C 61.910156 94.375 62.0625 95.402344 62.945312 95.949219 C 63.769531 96.460938 64.054688 97.269531 64.101562 98.355469 C 64.15625 99.558594 63.949219 100.207031 62.269531 100.832031 C 61.613281 101.074219 60.734375 101.558594 59.988281 101.457031 C 58.757812 101.285156 57.195312 100.503906 57.289062 99.355469 C 57.347656 98.636719 56.777344 98.109375 56.882812 97.347656 C 57.050781 96.148438 58.417969 95.796875 59.101562 94.902344 C 59.566406 94.289062 60.203125 94.136719 60.996094 94.246094 " fill-opacity="1" fill-rule="nonzero"/><path fill="#a15f4f" d="M 61.613281 97.402344 C 61.613281 97.402344 62.105469 97.035156 61.761719 96.351562 C 61.417969 95.667969 60.394531 95.792969 60.394531 95.792969 C 60.394531 95.792969 61.859375 96.152344 61.613281 97.402344 " fill-opacity="1" fill-rule="nonzero"/><path fill="#a15f4f" d="M 61.789062 99.773438 C 61.789062 99.773438 62.824219 100.046875 63.171875 98.992188 C 63.515625 97.9375 62.707031 97.753906 62.707031 97.753906 C 62.707031 97.753906 63.363281 99.246094 61.789062 99.773438 " fill-opacity="1" fill-rule="nonzero"/><path fill="#a15f4f" d="M 58.242188 98.722656 C 58.242188 98.722656 59.074219 100.085938 59.851562 99.328125 C 59.851562 99.328125 59.492188 99.84375 59.078125 99.789062 C 58.664062 99.738281 58.210938 98.652344 58.210938 98.652344 L 58.242188 98.722656 " fill-opacity="1" fill-rule="nonzero"/><path fill="#a15f4f" d="M 56.871094 97.585938 C 56.894531 98.226562 57.339844 98.714844 57.289062 99.355469 C 57.195312 100.503906 58.757812 101.285156 59.988281 101.457031 C 60.734375 101.558594 61.613281 101.074219 62.269531 100.832031 C 63.085938 100.527344 63.554688 100.21875 63.816406 99.839844 C 63.734375 99.875 62.304688 100.449219 61.660156 100.6875 C 60.996094 100.933594 59.785156 100.933594 58.601562 100.507812 C 57.632812 100.15625 57.054688 98.269531 56.871094 97.585938 " fill-opacity="1" fill-rule="nonzero"/><path fill="#482420" d="M 59.101562 94.902344 C 58.765625 95.34375 58.265625 95.652344 57.820312 95.992188 C 57.820312 95.992188 58.246094 95.878906 58.832031 95.621094 C 59.414062 95.363281 59.640625 94.679688 60.113281 94.554688 C 60.582031 94.433594 61.410156 94.566406 61.652344 94.867188 C 61.894531 95.164062 62.777344 95.871094 63.09375 96.292969 C 63.414062 96.710938 64.007812 98.003906 64.050781 98.480469 C 64.058594 98.53125 64.078125 98.570312 64.109375 98.601562 C 64.109375 98.523438 64.105469 98.441406 64.101562 98.355469 C 64.054688 97.269531 63.769531 96.460938 62.945312 95.949219 C 62.0625 95.402344 61.910156 94.375 60.996094 94.246094 C 60.203125 94.136719 59.566406 94.289062 59.101562 94.902344 " fill-opacity="1" fill-rule="nonzero"/><path fill="#634035" d="M 83.210938 74.847656 C 84.132812 74.933594 84.332031 75.953125 85.234375 76.457031 C 86.085938 76.929688 86.40625 77.722656 86.503906 78.808594 C 86.617188 80.007812 86.441406 80.664062 84.792969 81.363281 C 84.144531 81.640625 83.292969 82.167969 82.542969 82.097656 C 81.304688 81.984375 79.707031 81.277344 79.746094 80.125 C 79.769531 79.40625 79.175781 78.902344 79.246094 78.136719 C 79.359375 76.933594 80.707031 76.515625 81.347656 75.59375 C 81.785156 74.957031 82.414062 74.773438 83.210938 74.847656 " fill-opacity="1" fill-rule="nonzero"/><path fill="#a15f4f" d="M 83.976562 77.972656 C 83.976562 77.972656 84.449219 77.582031 84.074219 76.914062 C 83.699219 76.246094 82.679688 76.421875 82.679688 76.421875 C 82.679688 76.421875 84.164062 76.710938 83.976562 77.972656 " fill-opacity="1" fill-rule="nonzero"/><path fill="#a15f4f" d="M 84.261719 80.332031 C 84.261719 80.332031 85.308594 80.554688 85.605469 79.488281 C 85.902344 78.417969 85.085938 78.273438 85.085938 78.273438 C 85.085938 78.273438 85.808594 79.730469 84.261719 80.332031 " fill-opacity="1" fill-rule="nonzero"/><path fill="#a15f4f" d="M 80.667969 79.449219 C 80.667969 79.449219 81.566406 80.769531 82.304688 79.980469 C 82.304688 79.980469 81.96875 80.507812 81.554688 80.476562 C 81.140625 80.445312 80.632812 79.378906 80.632812 79.378906 L 80.667969 79.449219 " fill-opacity="1" fill-rule="nonzero"/><path fill="#a15f4f" d="M 79.246094 78.375 C 79.296875 79.015625 79.765625 79.480469 79.746094 80.125 C 79.707031 81.277344 81.304688 81.984375 82.542969 82.097656 C 83.292969 82.167969 84.144531 81.640625 84.792969 81.363281 C 85.59375 81.023438 86.046875 80.691406 86.289062 80.304688 C 86.207031 80.34375 84.808594 80.984375 84.175781 81.253906 C 83.523438 81.527344 82.3125 81.585938 81.109375 81.210938 C 80.128906 80.910156 79.460938 79.050781 79.246094 78.375 " fill-opacity="1" fill-rule="nonzero"/><path fill="#482420" d="M 81.347656 75.59375 C 81.03125 76.046875 80.546875 76.378906 80.121094 76.742188 C 80.121094 76.742188 80.542969 76.605469 81.113281 76.320312 C 81.683594 76.039062 81.878906 75.34375 82.34375 75.199219 C 82.804688 75.054688 83.640625 75.152344 83.894531 75.4375 C 84.152344 75.722656 85.066406 76.386719 85.402344 76.792969 C 85.742188 77.199219 86.394531 78.460938 86.460938 78.933594 C 86.46875 78.984375 86.492188 79.023438 86.523438 79.054688 C 86.519531 78.972656 86.511719 78.890625 86.503906 78.808594 C 86.40625 77.722656 86.085938 76.929688 85.234375 76.457031 C 84.332031 75.953125 84.132812 74.933594 83.210938 74.847656 C 82.414062 74.773438 81.785156 74.957031 81.347656 75.59375 " fill-opacity="1" fill-rule="nonzero"/><path fill="#634035" d="M 75.085938 55.023438 C 75.902344 55.453125 75.691406 56.46875 76.332031 57.285156 C 76.933594 58.046875 76.925781 58.90625 76.597656 59.941406 C 76.234375 61.09375 75.820312 61.628906 74.03125 61.644531 C 73.328125 61.648438 72.335938 61.804688 71.671875 61.453125 C 70.570312 60.871094 69.371094 59.605469 69.851562 58.554688 C 70.152344 57.902344 69.796875 57.210938 70.160156 56.53125 C 70.726562 55.460938 72.132812 55.597656 73.078125 54.992188 C 73.730469 54.574219 74.378906 54.648438 75.085938 55.023438 " fill-opacity="1" fill-rule="nonzero"/><path fill="#a15f4f" d="M 74.585938 58.199219 C 74.585938 58.199219 75.171875 58.019531 75.085938 57.261719 C 74.996094 56.5 73.988281 56.265625 73.988281 56.265625 C 73.988281 56.265625 75.246094 57.105469 74.585938 58.199219 " fill-opacity="1" fill-rule="nonzero"/><path fill="#a15f4f" d="M 73.9375 60.484375 C 73.9375 60.484375 74.820312 61.09375 75.503906 60.222656 C 76.191406 59.351562 75.492188 58.902344 75.492188 58.902344 C 75.492188 58.902344 75.597656 60.527344 73.9375 60.484375 " fill-opacity="1" fill-rule="nonzero"/><path fill="#a15f4f" d="M 70.964844 58.289062 C 70.964844 58.289062 71.28125 59.851562 72.269531 59.40625 C 72.269531 59.40625 71.753906 59.765625 71.382812 59.578125 C 71.015625 59.386719 70.960938 58.210938 70.960938 58.210938 L 70.964844 58.289062 " fill-opacity="1" fill-rule="nonzero"/><path fill="#a15f4f" d="M 70.066406 56.75 C 69.867188 57.359375 70.121094 57.972656 69.851562 58.554688 C 69.371094 59.605469 70.570312 60.871094 71.671875 61.453125 C 72.335938 61.804688 73.328125 61.648438 74.03125 61.644531 C 74.902344 61.636719 75.445312 61.507812 75.820312 61.242188 C 75.730469 61.246094 74.191406 61.296875 73.503906 61.300781 C 72.792969 61.304688 71.65625 60.894531 70.691406 60.085938 C 69.902344 59.425781 70.003906 57.457031 70.066406 56.75 " fill-opacity="1" fill-rule="nonzero"/><path fill="#482420" d="M 73.078125 54.992188 C 72.613281 55.289062 72.035156 55.40625 71.503906 55.578125 C 71.503906 55.578125 71.945312 55.617188 72.582031 55.574219 C 73.214844 55.53125 73.664062 54.964844 74.148438 55.011719 C 74.632812 55.054688 75.367188 55.464844 75.492188 55.828125 C 75.617188 56.191406 76.203125 57.15625 76.359375 57.660156 C 76.511719 58.164062 76.628906 59.582031 76.507812 60.042969 C 76.496094 60.09375 76.5 60.136719 76.519531 60.175781 C 76.546875 60.101562 76.574219 60.023438 76.597656 59.941406 C 76.925781 58.90625 76.933594 58.046875 76.332031 57.285156 C 75.691406 56.46875 75.902344 55.453125 75.085938 55.023438 C 74.378906 54.648438 73.730469 54.574219 73.078125 54.992188 " fill-opacity="1" fill-rule="nonzero"/><path fill="#634035" d="M 40.683594 74.105469 C 40.847656 73.199219 41.878906 73.089844 42.460938 72.230469 C 43.007812 71.425781 43.828125 71.175781 44.917969 71.167969 C 46.121094 71.164062 46.761719 71.394531 47.320312 73.09375 C 47.539062 73.761719 47.988281 74.65625 47.855469 75.398438 C 47.636719 76.621094 46.792969 78.144531 45.648438 78.007812 C 44.929688 77.921875 44.378906 78.46875 43.621094 78.332031 C 42.429688 78.117188 42.132812 76.742188 41.265625 76.023438 C 40.667969 75.535156 40.539062 74.890625 40.683594 74.105469 " fill-opacity="1" fill-rule="nonzero"/><path fill="#a15f4f" d="M 43.867188 73.613281 C 43.867188 73.613281 43.515625 73.109375 42.816406 73.425781 C 42.121094 73.742188 42.207031 74.769531 42.207031 74.769531 C 42.207031 74.769531 42.625 73.320312 43.867188 73.613281 " fill-opacity="1" fill-rule="nonzero"/><path fill="#a15f4f" d="M 46.242188 73.535156 C 46.242188 73.535156 46.558594 72.511719 45.515625 72.125 C 44.476562 71.738281 44.257812 72.539062 44.257812 72.539062 C 44.257812 72.539062 45.777344 71.941406 46.242188 73.535156 " fill-opacity="1" fill-rule="nonzero"/><path fill="#a15f4f" d="M 45.054688 77.03125 C 45.054688 77.03125 46.449219 76.253906 45.722656 75.449219 C 45.722656 75.449219 46.222656 75.832031 46.152344 76.242188 C 46.085938 76.652344 44.980469 77.058594 44.980469 77.058594 L 45.054688 77.03125 " fill-opacity="1" fill-rule="nonzero"/><path fill="#a15f4f" d="M 43.859375 78.355469 C 44.5 78.359375 45.007812 77.933594 45.648438 78.007812 C 46.792969 78.144531 47.636719 76.621094 47.855469 75.398438 C 47.988281 74.65625 47.539062 73.761719 47.320312 73.09375 C 47.046875 72.269531 46.757812 71.789062 46.390625 71.515625 C 46.421875 71.597656 46.941406 73.042969 47.152344 73.699219 C 47.375 74.371094 47.328125 75.578125 46.851562 76.746094 C 46.460938 77.695312 44.554688 78.199219 43.859375 78.355469 " fill-opacity="1" fill-rule="nonzero"/><path fill="#482420" d="M 41.265625 76.023438 C 41.691406 76.378906 41.980469 76.886719 42.304688 77.34375 C 42.304688 77.34375 42.207031 76.914062 41.972656 76.320312 C 41.738281 75.730469 41.0625 75.476562 40.957031 75 C 40.851562 74.527344 41.019531 73.703125 41.328125 73.476562 C 41.636719 73.246094 42.378906 72.394531 42.8125 72.09375 C 43.246094 71.792969 44.5625 71.25 45.039062 71.222656 C 45.089844 71.222656 45.132812 71.203125 45.164062 71.171875 C 45.082031 71.167969 45 71.167969 44.917969 71.167969 C 43.828125 71.175781 43.007812 71.425781 42.460938 72.230469 C 41.878906 73.089844 40.847656 73.199219 40.683594 74.105469 C 40.539062 74.890625 40.667969 75.535156 41.265625 76.023438 " fill-opacity="1" fill-rule="nonzero"/><path fill="#05984c" d="M 70.515625 87.550781 C 70.515625 87.550781 66.246094 94.1875 67.839844 95.957031 C 69.433594 97.722656 71.0625 96.492188 71.0625 96.492188 C 71.0625 96.492188 68.570312 94.894531 70.515625 87.550781 " fill-opacity="1" fill-rule="nonzero"/><path fill="#fccf6e" d="M 30.152344 82.839844 C 30.152344 82.839844 26.90625 69.75 32.855469 60.609375 C 38.800781 51.464844 43.226562 47.371094 49.769531 45.210938 C 56.316406 43.050781 66.410156 39.449219 72.816406 43.027344 C 72.816406 43.027344 60.6875 41.238281 54.746094 43.988281 C 48.804688 46.742188 41.660156 50.832031 40.164062 52.632812 C 38.667969 54.433594 32.179688 62.667969 31.503906 65.234375 C 30.828125 67.800781 30.152344 82.839844 30.152344 82.839844 " fill-opacity="1" fill-rule="nonzero"/><g fill="#e41c24" fill-opacity="1"><g transform="translate(134.799837, 83.540909)"><g><path d="M 9.75 -11.65625 C 10.78125 -11.65625 11.582031 -12.0625 12.15625 -12.875 C 12.726562 -13.695312 13.015625 -14.800781 13.015625 -16.1875 C 13.015625 -17.84375 12.65625 -18.984375 11.9375 -19.609375 C 11.21875 -20.242188 10.101562 -20.5625 8.59375 -20.5625 C 8.3125 -20.5625 7.929688 -20.515625 7.453125 -20.421875 C 7.546875 -19.328125 7.59375 -17.414062 7.59375 -14.6875 L 7.59375 -12.1875 C 8.363281 -11.832031 9.082031 -11.65625 9.75 -11.65625 Z M 2.0625 -8.3125 L 2.0625 -15.515625 C 2.0625 -18.859375 1.890625 -21.613281 1.546875 -23.78125 C 3.609375 -24.0625 5.671875 -24.203125 7.734375 -24.203125 C 15.160156 -24.203125 18.875 -21.613281 18.875 -16.4375 C 18.875 -13.875 18.125 -11.847656 16.625 -10.359375 C 15.132812 -8.867188 13.332031 -8.125 11.21875 -8.125 C 9.96875 -8.125 8.757812 -8.484375 7.59375 -9.203125 L 7.59375 -6.796875 C 7.59375 -4.347656 7.878906 -2.21875 8.453125 -0.40625 C 7.710938 -0.0625 6.585938 0.109375 5.078125 0.109375 C 3.847656 0.109375 3.023438 -0.148438 2.609375 -0.671875 C 2.191406 -1.203125 1.984375 -1.972656 1.984375 -2.984375 C 1.984375 -3.367188 1.992188 -4.140625 2.015625 -5.296875 C 2.046875 -6.460938 2.0625 -7.46875 2.0625 -8.3125 Z M 2.0625 -8.3125 "/></g></g></g><g fill="#e41c24" fill-opacity="1"><g transform="translate(154.192044, 83.540909)"><g><path d="M 4.59375 -18.703125 C 3.6875 -18.703125 2.914062 -19.019531 2.28125 -19.65625 C 1.644531 -20.300781 1.328125 -21.109375 1.328125 -22.078125 C 1.328125 -23.015625 1.660156 -23.804688 2.328125 -24.453125 C 3.003906 -25.109375 3.785156 -25.4375 4.671875 -25.4375 C 5.554688 -25.4375 6.316406 -25.109375 6.953125 -24.453125 C 7.597656 -23.804688 7.921875 -23.015625 7.921875 -22.078125 C 7.921875 -21.128906 7.582031 -20.328125 6.90625 -19.671875 C 6.238281 -19.023438 5.46875 -18.703125 4.59375 -18.703125 Z M 4.671875 -17.1875 C 5.585938 -17.1875 6.296875 -17.03125 6.796875 -16.71875 C 7.296875 -16.414062 7.546875 -15.804688 7.546875 -14.890625 C 7.546875 -14.753906 7.503906 -13.703125 7.421875 -11.734375 C 7.347656 -9.765625 7.3125 -8.289062 7.3125 -7.3125 C 7.3125 -3.90625 7.515625 -1.582031 7.921875 -0.34375 C 6.910156 -0.0390625 5.914062 0.109375 4.9375 0.109375 C 3.800781 0.109375 3.015625 -0.0859375 2.578125 -0.484375 C 2.140625 -0.878906 1.921875 -1.460938 1.921875 -2.234375 C 1.921875 -2.617188 1.9375 -3.515625 1.96875 -4.921875 C 2 -6.335938 2.015625 -7.46875 2.015625 -8.3125 C 2.015625 -11.738281 1.925781 -14.539062 1.75 -16.71875 C 2.664062 -17.03125 3.640625 -17.1875 4.671875 -17.1875 Z M 4.671875 -17.1875 "/></g></g></g><g fill="#e41c24" fill-opacity="1"><g transform="translate(163.431447, 83.540909)"><g><path d="M 13.65625 -0.03125 C 12.320312 0.125 10.570312 0.203125 8.40625 0.203125 C 5.507812 0.203125 3.101562 0.0664062 1.1875 -0.203125 C 0.78125 -0.710938 0.578125 -1.332031 0.578125 -2.0625 C 0.578125 -2.769531 0.84375 -3.390625 1.375 -3.921875 L 10.75 -13.703125 C 10.03125 -13.742188 9.488281 -13.765625 9.125 -13.765625 C 6.65625 -13.765625 4.148438 -13.382812 1.609375 -12.625 C 1.398438 -13.382812 1.296875 -14.128906 1.296875 -14.859375 C 1.347656 -15.703125 1.71875 -16.253906 2.40625 -16.515625 C 3.101562 -16.804688 4.453125 -16.953125 6.453125 -16.953125 C 10.160156 -16.953125 13.269531 -16.710938 15.78125 -16.234375 C 16.175781 -15.847656 16.375 -15.289062 16.375 -14.5625 C 16.375 -13.863281 16.164062 -13.3125 15.75 -12.90625 L 6.21875 -2.84375 L 6.484375 -2.84375 C 8.890625 -2.84375 11.875 -3.320312 15.4375 -4.28125 C 15.71875 -3.5625 15.859375 -2.851562 15.859375 -2.15625 C 15.859375 -1.65625 15.742188 -1.25 15.515625 -0.9375 C 15.285156 -0.625 15.039062 -0.414062 14.78125 -0.3125 C 14.519531 -0.21875 14.144531 -0.125 13.65625 -0.03125 Z M 13.65625 -0.03125 "/></g></g></g><g fill="#e41c24" fill-opacity="1"><g transform="translate(181.207637, 83.540909)"><g><path d="M 13.65625 -0.03125 C 12.320312 0.125 10.570312 0.203125 8.40625 0.203125 C 5.507812 0.203125 3.101562 0.0664062 1.1875 -0.203125 C 0.78125 -0.710938 0.578125 -1.332031 0.578125 -2.0625 C 0.578125 -2.769531 0.84375 -3.390625 1.375 -3.921875 L 10.75 -13.703125 C 10.03125 -13.742188 9.488281 -13.765625 9.125 -13.765625 C 6.65625 -13.765625 4.148438 -13.382812 1.609375 -12.625 C 1.398438 -13.382812 1.296875 -14.128906 1.296875 -14.859375 C 1.347656 -15.703125 1.71875 -16.253906 2.40625 -16.515625 C 3.101562 -16.804688 4.453125 -16.953125 6.453125 -16.953125 C 10.160156 -16.953125 13.269531 -16.710938 15.78125 -16.234375 C 16.175781 -15.847656 16.375 -15.289062 16.375 -14.5625 C 16.375 -13.863281 16.164062 -13.3125 15.75 -12.90625 L 6.21875 -2.84375 L 6.484375 -2.84375 C 8.890625 -2.84375 11.875 -3.320312 15.4375 -4.28125 C 15.71875 -3.5625 15.859375 -2.851562 15.859375 -2.15625 C 15.859375 -1.65625 15.742188 -1.25 15.515625 -0.9375 C 15.285156 -0.625 15.039062 -0.414062 14.78125 -0.3125 C 14.519531 -0.21875 14.144531 -0.125 13.65625 -0.03125 Z M 13.65625 -0.03125 "/></g></g></g><g fill="#e41c24" fill-opacity="1"><g transform="translate(198.983827, 83.540909)"><g><path d="M 4.59375 -11.296875 C 2.488281 -11.679688 1.4375 -12.582031 1.4375 -14 C 1.4375 -14.957031 2.125 -15.769531 3.5 -16.4375 C 4.875 -17.101562 6.535156 -17.4375 8.484375 -17.4375 C 11.003906 -17.4375 12.863281 -16.957031 14.0625 -16 C 15.257812 -15.039062 15.859375 -13.445312 15.859375 -11.21875 C 15.859375 -11.03125 15.84375 -10.320312 15.8125 -9.09375 C 15.789062 -7.875 15.78125 -6.960938 15.78125 -6.359375 C 15.78125 -3.609375 16.007812 -1.546875 16.46875 -0.171875 C 15.414062 0.109375 14.476562 0.25 13.65625 0.25 C 11.9375 0.25 10.929688 -0.441406 10.640625 -1.828125 C 10.066406 -1.160156 9.328125 -0.628906 8.421875 -0.234375 C 7.523438 0.148438 6.625 0.34375 5.71875 0.34375 C 4.394531 0.34375 3.28125 -0.078125 2.375 -0.921875 C 1.476562 -1.773438 1.03125 -3.035156 1.03125 -4.703125 C 1.03125 -6.054688 1.300781 -7.039062 1.84375 -7.65625 C 2.394531 -8.28125 3.132812 -8.75 4.0625 -9.0625 C 5.882812 -9.632812 8.039062 -10 10.53125 -10.15625 C 10.53125 -11.601562 10.367188 -12.625 10.046875 -13.21875 C 9.734375 -13.8125 9.0625 -14.109375 8.03125 -14.109375 C 7.425781 -14.109375 6.78125 -13.851562 6.09375 -13.34375 C 5.414062 -12.84375 4.914062 -12.160156 4.59375 -11.296875 Z M 10.5 -7.546875 C 9.789062 -7.429688 9.238281 -7.320312 8.84375 -7.21875 C 8.457031 -7.125 8.039062 -6.976562 7.59375 -6.78125 C 7.15625 -6.582031 6.847656 -6.316406 6.671875 -5.984375 C 6.492188 -5.660156 6.40625 -5.257812 6.40625 -4.78125 C 6.40625 -4.175781 6.546875 -3.722656 6.828125 -3.421875 C 7.117188 -3.128906 7.484375 -2.984375 7.921875 -2.984375 C 8.929688 -2.984375 9.769531 -3.28125 10.4375 -3.875 C 10.40625 -4.101562 10.390625 -4.46875 10.390625 -4.96875 C 10.390625 -5.820312 10.425781 -6.679688 10.5 -7.546875 Z M 10.5 -7.546875 "/></g></g></g><g fill="#e41c24" fill-opacity="1"><g transform="translate(216.760016, 83.540909)"><g/></g></g><g fill="#e41c24" fill-opacity="1"><g transform="translate(225.683242, 83.540909)"><g><path d="M 18.875 -6.359375 C 20.707031 -5.523438 21.625 -4.546875 21.625 -3.421875 C 21.625 -2.722656 21.328125 -2.109375 20.734375 -1.578125 C 20.140625 -1.054688 19.40625 -0.660156 18.53125 -0.390625 C 17.664062 -0.128906 16.835938 0.0546875 16.046875 0.171875 C 15.253906 0.285156 14.535156 0.34375 13.890625 0.34375 C 12.316406 0.34375 10.828125 0.140625 9.421875 -0.265625 C 8.015625 -0.679688 6.664062 -1.335938 5.375 -2.234375 C 4.09375 -3.140625 3.066406 -4.425781 2.296875 -6.09375 C 1.535156 -7.757812 1.15625 -9.707031 1.15625 -11.9375 C 1.15625 -15.78125 2.289062 -18.785156 4.5625 -20.953125 C 6.84375 -23.117188 9.9375 -24.203125 13.84375 -24.203125 C 15.9375 -24.203125 17.691406 -23.820312 19.109375 -23.0625 C 20.535156 -22.3125 21.25 -21.382812 21.25 -20.28125 C 21.25 -19.4375 20.898438 -18.75 20.203125 -18.21875 C 19.515625 -17.695312 18.59375 -17.367188 17.4375 -17.234375 C 17.03125 -18.328125 16.382812 -19.15625 15.5 -19.71875 C 14.613281 -20.28125 13.664062 -20.5625 12.65625 -20.5625 C 11.007812 -20.5625 9.648438 -19.804688 8.578125 -18.296875 C 7.503906 -16.785156 6.96875 -14.90625 6.96875 -12.65625 C 6.96875 -10 7.515625 -7.769531 8.609375 -5.96875 C 9.703125 -4.164062 11.234375 -3.265625 13.203125 -3.265625 C 14.304688 -3.265625 15.367188 -3.515625 16.390625 -4.015625 C 17.410156 -4.523438 18.238281 -5.304688 18.875 -6.359375 Z M 18.875 -6.359375 "/></g></g></g><g fill="#e41c24" fill-opacity="1"><g transform="translate(248.307483, 83.540909)"><g><path d="M 4.328125 -17.1875 C 5.234375 -17.1875 5.9375 -17.03125 6.4375 -16.71875 C 6.945312 -16.414062 7.203125 -15.804688 7.203125 -14.890625 L 7.203125 -14.421875 C 7.847656 -15.191406 8.617188 -15.882812 9.515625 -16.5 C 10.410156 -17.125 11.300781 -17.4375 12.1875 -17.4375 C 12.894531 -17.4375 13.4375 -17.273438 13.8125 -16.953125 C 14.195312 -16.628906 14.390625 -16.207031 14.390625 -15.6875 C 14.390625 -14.695312 13.953125 -13.734375 13.078125 -12.796875 C 12.253906 -13.328125 11.476562 -13.59375 10.75 -13.59375 C 9.695312 -13.59375 8.460938 -12.859375 7.046875 -11.390625 C 6.972656 -9.972656 6.9375 -8.613281 6.9375 -7.3125 C 6.9375 -3.90625 7.140625 -1.582031 7.546875 -0.34375 C 6.546875 -0.0390625 5.550781 0.109375 4.5625 0.109375 C 3.4375 0.109375 2.648438 -0.0859375 2.203125 -0.484375 C 1.765625 -0.878906 1.546875 -1.460938 1.546875 -2.234375 C 1.546875 -2.617188 1.5625 -3.515625 1.59375 -4.921875 C 1.632812 -6.335938 1.65625 -7.46875 1.65625 -8.3125 C 1.65625 -11.738281 1.570312 -14.539062 1.40625 -16.71875 C 2.320312 -17.03125 3.296875 -17.1875 4.328125 -17.1875 Z M 4.328125 -17.1875 "/></g></g></g><g fill="#e41c24" fill-opacity="1"><g transform="translate(262.869203, 83.540909)"><g><path d="M 18.5 -0.34375 C 17.3125 -0.0390625 16.300781 0.109375 15.46875 0.109375 C 14.695312 0.109375 14.039062 -0.0625 13.5 -0.40625 C 12.96875 -0.757812 12.675781 -1.273438 12.625 -1.953125 C 10.875 -0.421875 8.976562 0.34375 6.9375 0.34375 C 3.550781 0.34375 1.859375 -1.335938 1.859375 -4.703125 C 1.859375 -4.773438 1.878906 -5.648438 1.921875 -7.328125 C 1.960938 -9.015625 1.984375 -10.28125 1.984375 -11.125 C 1.984375 -13.613281 1.789062 -15.476562 1.40625 -16.71875 C 2.34375 -17.03125 3.316406 -17.1875 4.328125 -17.1875 C 6.378906 -17.1875 7.40625 -16.457031 7.40625 -15 C 7.40625 -14.195312 7.367188 -12.71875 7.296875 -10.5625 C 7.234375 -8.414062 7.203125 -7.125 7.203125 -6.6875 C 7.203125 -5.539062 7.382812 -4.65625 7.75 -4.03125 C 8.125 -3.40625 8.582031 -3.09375 9.125 -3.09375 C 10.363281 -3.09375 11.507812 -3.65625 12.5625 -4.78125 C 12.53125 -5.71875 12.515625 -7.164062 12.515625 -9.125 C 12.515625 -11.914062 12.429688 -14.445312 12.265625 -16.71875 C 13.222656 -17.03125 14.144531 -17.1875 15.03125 -17.1875 C 15.988281 -17.1875 16.726562 -17.039062 17.25 -16.75 C 17.78125 -16.46875 18.046875 -15.875 18.046875 -14.96875 C 18.046875 -14.71875 18.015625 -13.984375 17.953125 -12.765625 C 17.898438 -11.546875 17.863281 -10.585938 17.84375 -9.890625 L 17.84375 -7.3125 C 17.84375 -4.257812 18.0625 -1.9375 18.5 -0.34375 Z M 18.5 -0.34375 "/></g></g></g><g fill="#e41c24" fill-opacity="1"><g transform="translate(282.770806, 83.540909)"><g><path d="M 11.078125 -11.65625 C 10.878906 -12.394531 10.539062 -12.96875 10.0625 -13.375 C 9.582031 -13.789062 9.054688 -14 8.484375 -14 C 7.929688 -14 7.460938 -13.851562 7.078125 -13.5625 C 6.703125 -13.28125 6.515625 -12.859375 6.515625 -12.296875 C 6.515625 -11.722656 6.796875 -11.269531 7.359375 -10.9375 C 7.921875 -10.601562 8.601562 -10.332031 9.40625 -10.125 C 10.207031 -9.914062 11.007812 -9.660156 11.8125 -9.359375 C 12.613281 -9.066406 13.296875 -8.570312 13.859375 -7.875 C 14.429688 -7.175781 14.71875 -6.289062 14.71875 -5.21875 C 14.71875 -3.382812 13.988281 -2 12.53125 -1.0625 C 11.082031 -0.125 9.375 0.34375 7.40625 0.34375 C 6.789062 0.34375 6.179688 0.3125 5.578125 0.25 C 4.972656 0.195312 4.28125 0.0859375 3.5 -0.078125 C 2.71875 -0.253906 2.09375 -0.566406 1.625 -1.015625 C 1.164062 -1.460938 0.9375 -2.015625 0.9375 -2.671875 C 0.9375 -3.953125 1.90625 -4.957031 3.84375 -5.6875 C 4.09375 -4.820312 4.550781 -4.171875 5.21875 -3.734375 C 5.882812 -3.304688 6.59375 -3.09375 7.34375 -3.09375 C 8.945312 -3.09375 9.75 -3.664062 9.75 -4.8125 C 9.75 -5.375 9.320312 -5.828125 8.46875 -6.171875 C 7.625 -6.515625 6.695312 -6.800781 5.6875 -7.03125 C 4.6875 -7.257812 3.753906 -7.773438 2.890625 -8.578125 C 2.035156 -9.378906 1.609375 -10.453125 1.609375 -11.796875 C 1.609375 -13.492188 2.332031 -14.859375 3.78125 -15.890625 C 5.238281 -16.921875 6.882812 -17.4375 8.71875 -17.4375 C 9.539062 -17.4375 10.378906 -17.347656 11.234375 -17.171875 C 12.085938 -16.992188 12.859375 -16.644531 13.546875 -16.125 C 14.242188 -15.601562 14.59375 -14.976562 14.59375 -14.25 C 14.59375 -13.601562 14.300781 -13.046875 13.71875 -12.578125 C 13.132812 -12.109375 12.253906 -11.800781 11.078125 -11.65625 Z M 11.078125 -11.65625 "/></g></g></g><g fill="#e41c24" fill-opacity="1"><g transform="translate(298.456713, 83.540909)"><g><path d="M 3.5 -6.515625 L 3.5 -13.703125 C 2.238281 -13.671875 1.164062 -13.585938 0.28125 -13.453125 C 0.09375 -13.984375 0 -14.488281 0 -14.96875 C 0 -16.382812 0.972656 -17.09375 2.921875 -17.09375 L 3.421875 -17.09375 C 3.367188 -18.550781 3.296875 -19.773438 3.203125 -20.765625 C 3.972656 -21.066406 4.847656 -21.21875 5.828125 -21.21875 C 6.472656 -21.21875 6.984375 -21.1875 7.359375 -21.125 C 7.734375 -21.070312 8.09375 -20.878906 8.4375 -20.546875 C 8.78125 -20.210938 8.953125 -19.71875 8.953125 -19.0625 C 8.953125 -18.6875 8.921875 -18.015625 8.859375 -17.046875 C 11.347656 -17.046875 13.320312 -17.140625 14.78125 -17.328125 C 14.945312 -16.992188 15.03125 -16.476562 15.03125 -15.78125 C 15.03125 -14.519531 14.320312 -13.847656 12.90625 -13.765625 C 11.988281 -13.722656 10.613281 -13.703125 8.78125 -13.703125 C 8.707031 -11.335938 8.671875 -8.96875 8.671875 -6.59375 C 8.671875 -6.007812 8.679688 -5.566406 8.703125 -5.265625 C 8.734375 -4.960938 8.800781 -4.597656 8.90625 -4.171875 C 9.007812 -3.742188 9.195312 -3.429688 9.46875 -3.234375 C 9.75 -3.046875 10.101562 -2.953125 10.53125 -2.953125 C 11.726562 -2.953125 12.691406 -3.304688 13.421875 -4.015625 C 14.398438 -3.328125 14.890625 -2.628906 14.890625 -1.921875 C 14.890625 -1.234375 14.476562 -0.679688 13.65625 -0.265625 C 12.832031 0.140625 11.835938 0.34375 10.671875 0.34375 C 8.066406 0.34375 6.21875 -0.226562 5.125 -1.375 C 4.039062 -2.519531 3.5 -4.234375 3.5 -6.515625 Z M 3.5 -6.515625 "/></g></g></g></svg>