<svg xmlns="http://www.w3.org/2000/svg" xmlns:xlink="http://www.w3.org/1999/xlink" width="500" zoomAndPan="magnify" viewBox="0 0 375 374.999991" height="500" preserveAspectRatio="xMidYMid meet" version="1.0"><defs><clipPath id="id1"><path d="M 35.664062 33.828125 L 339.414062 33.828125 L 339.414062 337.578125 L 35.664062 337.578125 Z M 35.664062 33.828125 " clip-rule="nonzero"/></clipPath><clipPath id="id2"><path d="M 76 75 L 301.015625 75 L 301.015625 299.785156 L 76 299.785156 Z M 76 75 " clip-rule="nonzero"/></clipPath></defs><g clip-path="url(#id1)"><path fill="#e41c24" d="M 339.414062 303.828125 C 339.414062 322.464844 324.300781 337.578125 305.664062 337.578125 L 69.414062 337.578125 C 50.773438 337.578125 35.664062 322.464844 35.664062 303.828125 L 35.664062 67.578125 C 35.664062 48.9375 50.773438 33.828125 69.414062 33.828125 L 305.664062 33.828125 C 324.300781 33.828125 339.414062 48.9375 339.414062 67.578125 Z M 339.414062 303.828125 " fill-opacity="1" fill-rule="nonzero"/></g><path fill="#e10032" d="M 51.972656 181.101562 C 51.972656 138.984375 80.324219 106.574219 121.632812 106.574219 C 162.34375 106.574219 191.300781 139.988281 191.300781 181.101562 C 191.300781 223.027344 163.152344 255.632812 121.632812 255.632812 C 80.527344 255.632812 51.972656 223.027344 51.972656 181.101562 Z M 159.710938 181.101562 C 159.710938 156.601562 146.953125 134.527344 121.632812 134.527344 C 96.320312 134.527344 83.5625 156.601562 83.5625 181.101562 C 83.5625 205.816406 95.914062 227.6875 121.632812 227.6875 C 147.351562 227.6875 159.710938 205.816406 159.710938 181.101562 Z M 203.839844 122.773438 C 203.839844 114.472656 209.921875 107.789062 219.035156 107.789062 C 227.734375 107.789062 234.222656 113.460938 234.222656 122.773438 L 234.222656 166.523438 L 284.046875 113.460938 C 286.273438 111.03125 290.113281 107.789062 295.78125 107.789062 C 303.476562 107.789062 310.777344 113.664062 310.777344 122.371094 C 310.777344 127.636719 307.527344 131.886719 300.855469 138.570312 L 262.574219 176.234375 L 309.359375 225.046875 C 314.21875 229.90625 317.863281 234.351562 317.863281 240.4375 C 317.863281 249.953125 310.363281 254.398438 302.058594 254.398438 C 296.195312 254.398438 292.355469 250.964844 286.671875 244.882812 L 234.222656 188.175781 L 234.222656 239.820312 C 234.222656 247.71875 228.148438 254.398438 219.035156 254.398438 C 210.328125 254.398438 203.839844 248.730469 203.839844 239.820312 Z M 203.839844 122.773438 " fill-opacity="1" fill-rule="nonzero"/><path fill="#f8b62d" d="M 290.652344 187.429688 C 290.652344 243.703125 245.125 289.320312 188.964844 289.320312 C 132.800781 289.320312 87.273438 243.703125 87.273438 187.429688 C 87.273438 131.152344 132.800781 85.535156 188.964844 85.535156 C 245.125 85.535156 290.652344 131.152344 290.652344 187.429688 " fill-opacity="1" fill-rule="nonzero"/><g clip-path="url(#id2)"><path fill="#d59c27" d="M 188.964844 286.289062 C 134.472656 286.289062 90.304688 242.027344 90.304688 187.429688 C 90.304688 132.832031 134.472656 88.570312 188.964844 88.570312 C 243.453125 88.570312 287.625 132.832031 287.625 187.429688 C 287.625 242.027344 243.453125 286.289062 188.964844 286.289062 Z M 188.964844 75.121094 C 127.0625 75.121094 76.878906 125.402344 76.878906 187.429688 C 76.878906 249.453125 127.0625 299.734375 188.964844 299.734375 C 250.863281 299.734375 301.046875 249.453125 301.046875 187.429688 C 301.046875 125.402344 250.863281 75.121094 188.964844 75.121094 " fill-opacity="1" fill-rule="nonzero"/></g><path fill="#b21d26" d="M 178.578125 98.992188 C 150.175781 107.78125 131.105469 104.585938 121.613281 123.613281 C 112.117188 142.640625 95.363281 170.332031 98.15625 187.824219 C 100.949219 205.316406 100.5 232.738281 113.011719 246.167969 C 125.523438 259.597656 143.394531 269.476562 160.707031 276.011719 C 178.019531 282.542969 214.878906 267.238281 227.726562 269.296875 C 240.570312 271.351562 262.910156 257.234375 268.492188 234.074219 C 274.078125 210.914062 292.507812 209.75 278.546875 183.46875 C 264.585938 157.191406 278.367188 134.246094 256.675781 124.171875 C 234.984375 114.101562 205.71875 90.59375 178.578125 98.992188 " fill-opacity="1" fill-rule="nonzero"/><path fill="#eeee82" d="M 180.277344 97.851562 C 154.042969 106.679688 136.433594 103.472656 127.664062 122.585938 C 118.898438 141.699219 103.421875 169.515625 106.003906 187.085938 C 108.582031 204.660156 108.167969 232.203125 119.722656 245.695312 C 131.277344 259.1875 147.78125 269.109375 163.773438 275.671875 C 179.761719 282.234375 213.804688 266.863281 225.667969 268.925781 C 237.53125 270.992188 258.160156 256.8125 263.320312 233.546875 C 268.476562 210.28125 285.5 209.109375 272.605469 182.710938 C 259.710938 156.3125 272.441406 133.269531 252.40625 123.148438 C 232.371094 113.03125 205.34375 89.417969 180.277344 97.851562 " fill-opacity="1" fill-rule="nonzero"/><path fill="#dbdb78" d="M 139.277344 133.625 C 139.277344 133.625 154.414062 118.15625 169.785156 117.832031 L 168.304688 110.773438 C 168.304688 110.773438 137.148438 121.933594 136.179688 130.761719 L 139.277344 133.625 " fill-opacity="1" fill-rule="nonzero"/><path fill="#dbdb78" d="M 230.539062 234.605469 C 230.539062 234.605469 217.046875 251.535156 201.789062 253.421875 L 203.976562 260.292969 C 203.976562 260.292969 233.839844 246.019531 233.90625 237.136719 L 230.539062 234.605469 " fill-opacity="1" fill-rule="nonzero"/><path fill="#dbdb78" d="M 240.4375 144.078125 C 240.4375 144.078125 245.386719 160.855469 242.855469 170.703125 L 246.582031 173.066406 C 246.582031 173.066406 246.546875 148.199219 242.382812 143.464844 L 240.4375 144.078125 " fill-opacity="1" fill-rule="nonzero"/><path fill="#dbdb78" d="M 150.589844 244.847656 C 150.589844 244.847656 137.914062 232.816406 135.175781 223.027344 L 130.769531 222.851562 C 130.769531 222.851562 143.242188 244.355469 149.214844 246.359375 L 150.589844 244.847656 " fill-opacity="1" fill-rule="nonzero"/><path fill="#dbdb78" d="M 198.03125 121.675781 C 198.03125 121.675781 213.070312 123.070312 220.105469 129.214844 L 223.226562 126.449219 C 223.226562 126.449219 203.339844 117.222656 198.183594 119.539062 L 198.03125 121.675781 " fill-opacity="1" fill-rule="nonzero"/><path fill="#dbdb78" d="M 150.433594 179.683594 C 150.433594 179.683594 153.839844 164.9375 160.863281 158.78125 L 158.546875 155.3125 C 158.546875 155.3125 146.746094 173.8125 148.34375 179.246094 L 150.433594 179.683594 " fill-opacity="1" fill-rule="nonzero"/><path fill="#dbdb78" d="M 215.945312 179.195312 C 215.945312 179.195312 223.960938 192.023438 223.359375 201.351562 L 227.445312 202.15625 C 227.445312 202.15625 222.699219 180.722656 217.730469 178.019531 L 215.945312 179.195312 " fill-opacity="1" fill-rule="nonzero"/><path fill="#d0ad58" d="M 125.363281 224.492188 C 125.363281 224.492188 118.828125 242.617188 142.539062 256.992188 L 146.660156 247.617188 C 146.660156 247.617188 120.640625 240.132812 125.363281 224.492188 " fill-opacity="1" fill-rule="nonzero"/><path fill="#d0ad58" d="M 235.867188 151.550781 C 235.867188 151.550781 250.917969 166.316406 246.335938 177.914062 L 257.460938 173.632812 C 257.460938 173.632812 248.953125 152.265625 235.867188 151.550781 " fill-opacity="1" fill-rule="nonzero"/><path fill="#05984c" d="M 194.984375 163.09375 C 194.984375 163.09375 216.046875 162.96875 220.941406 174.4375 L 225.835938 163.550781 C 225.835938 163.550781 204.785156 154.375 194.984375 163.09375 " fill-opacity="1" fill-rule="nonzero"/><path fill="#05984c" d="M 133.582031 149.636719 C 133.582031 149.636719 139.496094 136.113281 148.195312 136.265625 L 142.652344 130.011719 C 142.652344 130.011719 130.816406 140.863281 133.582031 149.636719 " fill-opacity="1" fill-rule="nonzero"/><path fill="#05984c" d="M 168.429688 226.550781 C 168.429688 226.550781 156.195312 218.320312 157.886719 209.769531 L 150.761719 214.128906 C 150.761719 214.128906 159.320312 227.722656 168.429688 226.550781 " fill-opacity="1" fill-rule="nonzero"/><path fill="#d0ad58" d="M 174.210938 142.078125 C 174.210938 142.078125 158.285156 138.886719 153.996094 154.007812 C 149.707031 169.128906 160.457031 156.769531 160.457031 156.769531 C 160.457031 156.769531 164.832031 140.242188 174.210938 142.078125 " fill-opacity="1" fill-rule="nonzero"/><path fill="#d0ad58" d="M 243.71875 218.195312 C 243.71875 218.195312 243.71875 231.535156 225.402344 236.710938 C 225.402344 236.710938 237.832031 248.578125 243.71875 236.710938 C 249.609375 224.839844 243.71875 218.195312 243.71875 218.195312 " fill-opacity="1" fill-rule="nonzero"/><path fill="#634035" d="M 172.628906 118.523438 C 175.222656 117.125 177.546875 119.492188 180.847656 119.238281 C 183.9375 119 186.195312 120.550781 188.371094 123.265625 C 190.785156 126.269531 191.472656 128.328125 188.332031 133.109375 C 187.101562 134.984375 185.761719 137.894531 183.640625 139.039062 C 180.148438 140.921875 174.660156 141.859375 172.726562 138.714844 C 171.519531 136.753906 169.058594 136.460938 167.898438 134.296875 C 166.066406 130.886719 168.917969 127.398438 168.984375 123.800781 C 169.03125 121.332031 170.382812 119.734375 172.628906 118.523438 " fill-opacity="1" fill-rule="nonzero"/><path fill="#a15f4f" d="M 180.171875 125.507812 C 180.171875 125.507812 180.738281 123.628906 178.566406 122.511719 C 176.390625 121.394531 173.988281 123.652344 173.988281 123.652344 C 173.988281 123.652344 178.445312 121.8125 180.171875 125.507812 " fill-opacity="1" fill-rule="nonzero"/><path fill="#a15f4f" d="M 185.09375 131.296875 C 185.09375 131.296875 188.277344 130.039062 187.175781 126.667969 C 186.078125 123.292969 183.648438 124.347656 183.648438 124.347656 C 183.648438 124.347656 188.148438 126.953125 185.09375 131.296875 " fill-opacity="1" fill-rule="nonzero"/><path fill="#a15f4f" d="M 173.988281 135.285156 C 173.988281 135.285156 178.703125 137.226562 179.277344 133.804688 C 179.277344 133.804688 179.316406 135.8125 178.15625 136.460938 C 176.996094 137.109375 173.773438 135.15625 173.773438 135.15625 L 173.988281 135.285156 " fill-opacity="1" fill-rule="nonzero"/><path fill="#a15f4f" d="M 168.316406 134.9375 C 169.578125 136.542969 171.652344 136.964844 172.726562 138.714844 C 174.660156 141.859375 180.148438 140.921875 183.640625 139.039062 C 185.761719 137.894531 187.101562 134.984375 188.332031 133.109375 C 189.859375 130.785156 190.480469 129.101562 190.4375 127.640625 C 190.289062 127.882812 187.703125 132.0625 186.492188 133.898438 C 185.246094 135.792969 182.132812 138.078125 178.273438 139.210938 C 175.128906 140.128906 170.074219 136.359375 168.316406 134.9375 " fill-opacity="1" fill-rule="nonzero"/><path fill="#482420" d="M 168.984375 123.800781 C 168.949219 125.570312 168.246094 127.3125 167.753906 129.03125 C 167.753906 129.03125 168.632812 127.929688 169.648438 126.160156 C 170.660156 124.394531 169.957031 122.199219 170.933594 120.996094 C 171.910156 119.789062 174.300781 118.570312 175.484375 118.882812 C 176.667969 119.195312 180.269531 119.351562 181.886719 119.839844 C 183.5 120.328125 187.464844 122.539062 188.476562 123.675781 C 188.589844 123.804688 188.71875 123.871094 188.855469 123.886719 C 188.703125 123.683594 188.542969 123.476562 188.371094 123.265625 C 186.195312 120.550781 183.9375 119 180.847656 119.238281 C 177.546875 119.492188 175.222656 117.125 172.628906 118.523438 C 170.382812 119.734375 169.03125 121.332031 168.984375 123.800781 " fill-opacity="1" fill-rule="nonzero"/><path fill="#634035" d="M 175.921875 195.445312 C 176.101562 192.5 179.332031 191.761719 180.851562 188.816406 C 182.273438 186.058594 184.777344 184.945312 188.226562 184.519531 C 192.046875 184.046875 194.152344 184.539062 196.5625 189.730469 C 197.507812 191.765625 199.273438 194.4375 199.128906 196.847656 C 198.890625 200.8125 196.800781 205.980469 193.117188 205.976562 C 190.816406 205.972656 189.277344 207.917969 186.824219 207.773438 C 182.964844 207.539062 181.507812 203.273438 178.484375 201.324219 C 176.417969 199.988281 175.769531 198 175.921875 195.445312 " fill-opacity="1" fill-rule="nonzero"/><path fill="#a15f4f" d="M 185.820312 192.6875 C 185.820312 192.6875 184.519531 191.21875 182.429688 192.480469 C 180.335938 193.746094 180.992188 196.984375 180.992188 196.984375 C 180.992188 196.984375 181.773438 192.21875 185.820312 192.6875 " fill-opacity="1" fill-rule="nonzero"/><path fill="#a15f4f" d="M 193.320312 191.535156 C 193.320312 191.535156 193.925781 188.164062 190.484375 187.328125 C 187.042969 186.492188 186.660156 189.117188 186.660156 189.117188 C 186.660156 189.117188 191.242188 186.648438 193.320312 191.535156 " fill-opacity="1" fill-rule="nonzero"/><path fill="#a15f4f" d="M 190.867188 203.097656 C 190.867188 203.097656 194.992188 200.101562 192.394531 197.8125 C 192.394531 197.8125 194.117188 198.835938 194.054688 200.167969 C 193.996094 201.496094 190.648438 203.214844 190.648438 203.214844 L 190.867188 203.097656 " fill-opacity="1" fill-rule="nonzero"/><path fill="#a15f4f" d="M 187.589844 207.75 C 189.617188 207.519531 191.066406 205.976562 193.117188 205.976562 C 196.800781 205.980469 198.890625 200.8125 199.128906 196.847656 C 199.273438 194.4375 197.507812 191.765625 196.5625 189.730469 C 195.390625 187.207031 194.289062 185.792969 193.027344 185.058594 C 193.15625 185.316406 195.34375 189.714844 196.265625 191.714844 C 197.21875 193.773438 197.523438 197.625 196.453125 201.511719 C 195.578125 204.675781 189.722656 207 187.589844 207.75 " fill-opacity="1" fill-rule="nonzero"/><path fill="#482420" d="M 178.484375 201.324219 C 179.972656 202.285156 181.078125 203.800781 182.28125 205.125 C 182.28125 205.125 181.808594 203.792969 180.839844 202.003906 C 179.875 200.207031 177.640625 199.65625 177.128906 198.1875 C 176.621094 196.722656 176.84375 194.042969 177.726562 193.199219 C 178.617188 192.355469 180.644531 189.367188 181.90625 188.246094 C 183.167969 187.128906 187.132812 184.914062 188.632812 184.648438 C 188.796875 184.617188 188.921875 184.542969 189.007812 184.4375 C 188.757812 184.457031 188.496094 184.488281 188.226562 184.519531 C 184.777344 184.945312 182.273438 186.058594 180.851562 188.816406 C 179.332031 191.761719 176.101562 192.5 175.921875 195.445312 C 175.769531 198 176.417969 199.988281 178.484375 201.324219 " fill-opacity="1" fill-rule="nonzero"/><path fill="#634035" d="M 182.515625 247.199219 C 185.429688 247.609375 185.910156 250.894531 188.722656 252.644531 C 191.355469 254.28125 192.261719 256.867188 192.417969 260.347656 C 192.589844 264.199219 191.929688 266.269531 186.578125 268.265625 C 184.476562 269.050781 181.679688 270.601562 179.296875 270.269531 C 175.367188 269.71875 170.390625 267.226562 170.683594 263.542969 C 170.867188 261.25 169.054688 259.554688 169.394531 257.121094 C 169.929688 253.285156 174.285156 252.160156 176.464844 249.296875 C 177.957031 247.335938 179.988281 246.847656 182.515625 247.199219 " fill-opacity="1" fill-rule="nonzero"/><path fill="#a15f4f" d="M 184.480469 257.300781 C 184.480469 257.300781 186.042969 256.117188 184.953125 253.929688 C 183.855469 251.742188 180.585938 252.144531 180.585938 252.144531 C 180.585938 252.144531 185.265625 253.296875 184.480469 257.300781 " fill-opacity="1" fill-rule="nonzero"/><path fill="#a15f4f" d="M 185.035156 264.886719 C 185.035156 264.886719 188.34375 265.757812 189.445312 262.382812 C 190.550781 259.011719 187.96875 258.421875 187.96875 258.421875 C 187.96875 258.421875 190.0625 263.191406 185.035156 264.886719 " fill-opacity="1" fill-rule="nonzero"/><path fill="#a15f4f" d="M 173.726562 261.527344 C 173.726562 261.527344 176.382812 265.882812 178.863281 263.464844 C 178.863281 263.464844 177.710938 265.105469 176.390625 264.941406 C 175.074219 264.777344 173.625 261.296875 173.625 261.296875 L 173.726562 261.527344 " fill-opacity="1" fill-rule="nonzero"/><path fill="#a15f4f" d="M 169.355469 257.886719 C 169.425781 259.929688 170.847656 261.496094 170.683594 263.542969 C 170.390625 267.226562 175.367188 269.71875 179.296875 270.269531 C 181.679688 270.601562 184.476562 269.050781 186.578125 268.265625 C 189.183594 267.292969 190.675781 266.304688 191.5 265.101562 C 191.238281 265.210938 186.6875 267.046875 184.628906 267.8125 C 182.507812 268.601562 178.648438 268.601562 174.867188 267.230469 C 171.785156 266.109375 169.933594 260.078125 169.355469 257.886719 " fill-opacity="1" fill-rule="nonzero"/><path fill="#482420" d="M 176.464844 249.296875 C 175.394531 250.707031 173.796875 251.691406 172.386719 252.789062 C 172.386719 252.789062 173.746094 252.421875 175.605469 251.597656 C 177.464844 250.769531 178.191406 248.582031 179.691406 248.191406 C 181.1875 247.796875 183.835938 248.226562 184.605469 249.179688 C 185.375 250.132812 188.1875 252.394531 189.203125 253.742188 C 190.21875 255.089844 192.113281 259.226562 192.257812 260.742188 C 192.277344 260.910156 192.339844 261.042969 192.4375 261.136719 C 192.4375 260.882812 192.429688 260.621094 192.417969 260.347656 C 192.261719 256.867188 191.355469 254.28125 188.722656 252.644531 C 185.910156 250.894531 185.429688 247.609375 182.515625 247.199219 C 179.988281 246.847656 177.957031 247.335938 176.464844 249.296875 " fill-opacity="1" fill-rule="nonzero"/><path fill="#634035" d="M 253.367188 185.125 C 256.300781 185.394531 256.933594 188.65625 259.820312 190.269531 C 262.527344 191.785156 263.554688 194.328125 263.871094 197.792969 C 264.222656 201.632812 263.664062 203.730469 258.40625 205.976562 C 256.347656 206.859375 253.625 208.542969 251.226562 208.320312 C 247.28125 207.953125 242.191406 205.699219 242.3125 202.007812 C 242.390625 199.703125 240.5 198.097656 240.722656 195.648438 C 241.078125 191.792969 245.378906 190.464844 247.421875 187.503906 C 248.820312 185.472656 250.828125 184.886719 253.367188 185.125 " fill-opacity="1" fill-rule="nonzero"/><path fill="#a15f4f" d="M 255.804688 195.121094 C 255.804688 195.121094 257.3125 193.867188 256.117188 191.734375 C 254.921875 189.601562 251.671875 190.152344 251.671875 190.152344 C 251.671875 190.152344 256.398438 191.085938 255.804688 195.121094 " fill-opacity="1" fill-rule="nonzero"/><path fill="#a15f4f" d="M 256.710938 202.671875 C 256.710938 202.671875 260.054688 203.386719 261 199.964844 C 261.945312 196.546875 259.339844 196.078125 259.339844 196.078125 C 259.339844 196.078125 261.652344 200.746094 256.710938 202.671875 " fill-opacity="1" fill-rule="nonzero"/><path fill="#a15f4f" d="M 245.257812 199.847656 C 245.257812 199.847656 248.117188 204.074219 250.480469 201.542969 C 250.480469 201.542969 249.402344 203.234375 248.078125 203.132812 C 246.753906 203.03125 245.148438 199.621094 245.148438 199.621094 L 245.257812 199.847656 " fill-opacity="1" fill-rule="nonzero"/><path fill="#a15f4f" d="M 240.722656 196.414062 C 240.882812 198.453125 242.382812 199.949219 242.3125 202.007812 C 242.191406 205.699219 247.28125 207.953125 251.226562 208.320312 C 253.625 208.542969 256.347656 206.859375 258.40625 205.976562 C 260.964844 204.886719 262.410156 203.828125 263.179688 202.585938 C 262.921875 202.703125 258.460938 204.753906 256.441406 205.617188 C 254.355469 206.5 250.503906 206.683594 246.664062 205.488281 C 243.535156 204.515625 241.402344 198.574219 240.722656 196.414062 " fill-opacity="1" fill-rule="nonzero"/><path fill="#482420" d="M 247.421875 187.503906 C 246.417969 188.957031 244.867188 190.019531 243.511719 191.179688 C 243.511719 191.179688 244.851562 190.75 246.671875 189.839844 C 248.488281 188.929688 249.113281 186.707031 250.59375 186.246094 C 252.070312 185.78125 254.734375 186.089844 255.550781 187.003906 C 256.363281 187.917969 259.277344 190.046875 260.355469 191.347656 C 261.433594 192.644531 263.515625 196.6875 263.734375 198.195312 C 263.757812 198.363281 263.828125 198.488281 263.933594 198.582031 C 263.917969 198.324219 263.898438 198.0625 263.871094 197.792969 C 263.554688 194.328125 262.527344 191.785156 259.820312 190.269531 C 256.933594 188.65625 256.300781 185.394531 253.367188 185.125 C 250.828125 184.886719 248.820312 185.472656 247.421875 187.503906 " fill-opacity="1" fill-rule="nonzero"/><path fill="#634035" d="M 227.453125 121.679688 C 230.054688 123.058594 229.382812 126.3125 231.429688 128.917969 C 233.34375 131.359375 233.3125 134.101562 232.273438 137.425781 C 231.117188 141.105469 229.792969 142.820312 224.082031 142.867188 C 221.84375 142.882812 218.683594 143.382812 216.554688 142.253906 C 213.050781 140.390625 209.226562 136.34375 210.757812 132.984375 C 211.714844 130.890625 210.585938 128.679688 211.734375 126.503906 C 213.550781 123.082031 218.027344 123.519531 221.050781 121.574219 C 223.121094 120.242188 225.195312 120.476562 227.453125 121.679688 " fill-opacity="1" fill-rule="nonzero"/><path fill="#a15f4f" d="M 225.855469 131.84375 C 225.855469 131.84375 227.726562 131.269531 227.445312 128.839844 C 227.164062 126.40625 223.953125 125.660156 223.953125 125.660156 C 223.953125 125.660156 227.957031 128.347656 225.855469 131.84375 " fill-opacity="1" fill-rule="nonzero"/><path fill="#a15f4f" d="M 223.789062 139.160156 C 223.789062 139.160156 226.597656 141.113281 228.785156 138.320312 C 230.972656 135.527344 228.746094 134.09375 228.746094 134.09375 C 228.746094 134.09375 229.085938 139.292969 223.789062 139.160156 " fill-opacity="1" fill-rule="nonzero"/><path fill="#a15f4f" d="M 214.304688 132.128906 C 214.304688 132.128906 215.316406 137.132812 218.46875 135.710938 C 218.46875 135.710938 216.828125 136.859375 215.644531 136.253906 C 214.460938 135.648438 214.289062 131.878906 214.289062 131.878906 L 214.304688 132.128906 " fill-opacity="1" fill-rule="nonzero"/><path fill="#a15f4f" d="M 211.4375 127.210938 C 210.804688 129.152344 211.609375 131.117188 210.757812 132.984375 C 209.226562 136.34375 213.050781 140.390625 216.554688 142.253906 C 218.683594 143.382812 221.84375 142.882812 224.082031 142.867188 C 226.859375 142.84375 228.601562 142.425781 229.789062 141.582031 C 229.503906 141.589844 224.601562 141.757812 222.40625 141.769531 C 220.140625 141.785156 216.515625 140.464844 213.433594 137.878906 C 210.917969 135.773438 211.234375 129.46875 211.4375 127.210938 " fill-opacity="1" fill-rule="nonzero"/><path fill="#482420" d="M 221.050781 121.574219 C 219.5625 122.53125 217.722656 122.910156 216.023438 123.457031 L 216.023438 123.460938 C 216.023438 123.460938 217.429688 123.578125 219.457031 123.441406 C 221.488281 123.304688 222.917969 121.496094 224.460938 121.640625 C 226 121.785156 228.34375 123.09375 228.742188 124.253906 C 229.140625 125.414062 231.011719 128.503906 231.503906 130.117188 C 232 131.730469 232.367188 136.265625 231.988281 137.742188 C 231.945312 137.90625 231.960938 138.050781 232.023438 138.171875 C 232.109375 137.933594 232.191406 137.683594 232.273438 137.425781 C 233.3125 134.101562 233.34375 131.359375 231.429688 128.917969 C 229.382812 126.3125 230.054688 123.058594 227.453125 121.679688 C 225.195312 120.476562 223.121094 120.242188 221.050781 121.574219 " fill-opacity="1" fill-rule="nonzero"/><path fill="#634035" d="M 117.722656 182.746094 C 118.246094 179.839844 121.542969 179.488281 123.394531 176.746094 C 125.132812 174.171875 127.75 173.367188 131.226562 173.351562 C 135.074219 173.332031 137.109375 174.070312 138.890625 179.511719 C 139.589844 181.644531 141.027344 184.503906 140.601562 186.878906 C 139.898438 190.789062 137.214844 195.675781 133.554688 195.234375 C 131.273438 194.960938 129.511719 196.710938 127.097656 196.273438 C 123.292969 195.585938 122.34375 191.179688 119.574219 188.886719 C 117.679688 187.316406 117.269531 185.261719 117.722656 182.746094 " fill-opacity="1" fill-rule="nonzero"/><path fill="#a15f4f" d="M 127.875 181.175781 C 127.875 181.175781 126.757812 179.5625 124.53125 180.570312 C 122.304688 181.582031 122.578125 184.871094 122.578125 184.871094 C 122.578125 184.871094 123.910156 180.230469 127.875 181.175781 " fill-opacity="1" fill-rule="nonzero"/><path fill="#a15f4f" d="M 135.457031 180.917969 C 135.457031 180.917969 136.457031 177.640625 133.136719 176.40625 C 129.820312 175.167969 129.128906 177.726562 129.128906 177.726562 C 129.128906 177.726562 133.96875 175.820312 135.457031 180.917969 " fill-opacity="1" fill-rule="nonzero"/><path fill="#a15f4f" d="M 131.660156 192.109375 C 131.660156 192.109375 136.109375 189.621094 133.796875 187.042969 C 133.796875 187.042969 135.390625 188.265625 135.171875 189.578125 C 134.957031 190.890625 131.425781 192.203125 131.425781 192.203125 L 131.660156 192.109375 " fill-opacity="1" fill-rule="nonzero"/><path fill="#a15f4f" d="M 127.859375 196.34375 C 129.898438 196.355469 131.519531 194.992188 133.554688 195.234375 C 137.214844 195.675781 139.898438 190.789062 140.601562 186.878906 C 141.027344 184.503906 139.589844 181.644531 138.890625 179.511719 C 138.027344 176.863281 137.097656 175.332031 135.929688 174.453125 C 136.027344 174.722656 137.679688 179.351562 138.363281 181.445312 C 139.066406 183.601562 138.914062 187.464844 137.394531 191.195312 C 136.15625 194.234375 130.066406 195.851562 127.859375 196.34375 " fill-opacity="1" fill-rule="nonzero"/><path fill="#482420" d="M 119.574219 188.886719 C 120.9375 190.015625 121.859375 191.652344 122.894531 193.109375 C 122.894531 193.109375 122.582031 191.734375 121.835938 189.835938 C 121.085938 187.941406 118.929688 187.128906 118.597656 185.613281 C 118.265625 184.09375 118.800781 181.460938 119.78125 180.726562 C 120.761719 179.996094 123.128906 177.269531 124.511719 176.304688 C 125.898438 175.34375 130.09375 173.613281 131.613281 173.523438 C 131.78125 173.515625 131.914062 173.457031 132.011719 173.359375 C 131.757812 173.351562 131.496094 173.347656 131.226562 173.351562 C 127.75 173.367188 125.132812 174.171875 123.394531 176.746094 C 121.542969 179.488281 118.246094 179.839844 117.722656 182.746094 C 117.269531 185.261719 117.679688 187.316406 119.574219 188.886719 " fill-opacity="1" fill-rule="nonzero"/><path fill="#05984c" d="M 212.878906 225.765625 C 212.878906 225.765625 199.25 247.007812 204.335938 252.667969 C 209.421875 258.324219 214.613281 254.378906 214.613281 254.378906 C 214.613281 254.378906 206.667969 249.269531 212.878906 225.765625 " fill-opacity="1" fill-rule="nonzero"/><path fill="#fccf6e" d="M 84.128906 210.691406 C 84.128906 210.691406 73.785156 168.808594 92.753906 139.550781 C 111.726562 110.292969 125.832031 97.1875 146.707031 90.277344 C 167.578125 83.363281 199.785156 71.839844 220.207031 83.289062 C 220.207031 83.289062 181.53125 77.5625 162.578125 86.367188 C 143.628906 95.175781 120.839844 108.265625 116.066406 114.03125 C 111.292969 119.796875 90.597656 146.148438 88.441406 154.359375 C 86.285156 162.566406 84.128906 210.691406 84.128906 210.691406 " fill-opacity="1" fill-rule="nonzero"/></svg>